<?xml version="1.0" encoding="utf-8"?>
<!-- Generator: Adobe Illustrator 27.0.0, SVG Export Plug-In . SVG Version: 6.00 Build 0)  -->
<svg version="1.1" id="Capa_1" xmlns:serif="http://www.serif.com/"
	 xmlns="http://www.w3.org/2000/svg" xmlns:xlink="http://www.w3.org/1999/xlink" x="0px" y="0px" viewBox="0 0 1400 1000"
	 style="enable-background:new 0 0 1400 1000;" xml:space="preserve">
<style type="text/css">
	.st0{fill-rule:evenodd;clip-rule:evenodd;fill:#FFFFFF;}
</style>
<g id="Icon">
	<path class="st0" d="M366.7,281.2h666.7c17.2,0,31.2-14,31.2-31.2s-14-31.2-31.2-31.2H366.7c-17.3,0-31.3,14-31.3,31.2
		S349.4,281.2,366.7,281.2z"/>
	<path class="st0" d="M366.7,531.2h666.7c17.2,0,31.2-14,31.2-31.2c0-17.2-14-31.2-31.2-31.2H366.7c-17.3,0-31.3,14-31.3,31.2
		C335.4,517.2,349.4,531.2,366.7,531.2z"/>
	<path class="st0" d="M366.7,781.2h666.7c17.2,0,31.2-14,31.2-31.2c0-17.2-14-31.2-31.2-31.2H366.7c-17.3,0-31.3,14-31.3,31.2
		C335.4,767.2,349.4,781.2,366.7,781.2z"/>
</g>
</svg>
