<?xml version="1.0" encoding="UTF-8"?>
<svg id="Capa_2" data-name="Capa 2" xmlns="http://www.w3.org/2000/svg" viewBox="0 0 729.17 562.5">
  <defs>
    <style>
      .cls-1 {
        fill: #fff;
        fill-rule: evenodd;
      }
    </style>
  </defs>
  <g id="Capa_1-2" data-name="Capa 1">
    <g id="Icon">
      <path class="cls-1" d="M31.25,62.5H697.92c17.25,0,31.25-14,31.25-31.25s-14-31.25-31.25-31.25H31.25C14,0,0,14,0,31.25s14,31.25,31.25,31.25Z"/>
      <path class="cls-1" d="M31.25,312.5H697.92c17.25,0,31.25-14,31.25-31.25s-14-31.25-31.25-31.25H31.25c-17.25,0-31.25,14-31.25,31.25s14,31.25,31.25,31.25Z"/>
      <path class="cls-1" d="M31.25,562.5H697.92c17.25,0,31.25-14,31.25-31.25s-14-31.25-31.25-31.25H31.25c-17.25,0-31.25,14-31.25,31.25s14,31.25,31.25,31.25Z"/>
    </g>
  </g>
</svg>